<svg id="logo_mutabiq" xmlns="http://www.w3.org/2000/svg" viewBox="0 0 970 473.18">
    <defs>
        <style>
        .cls-1 {
            fill: #1270b1;
        }

        .cls-2 {
            fill: #1c4680;
        }

        .cls-3,
        .cls-4 {
            fill: none;
            stroke-linecap: round;
            stroke-miterlimit: 133.33;
            stroke-width: 20.88px;
        }

        .cls-3 {
            stroke: #1b4580;
        }

        .cls-4 {
            stroke: #146fb2;
        }

        .cls-5 {
            fill: #585856;
        }

        .cls-6 {
            fill: #1b4580;
        }
        </style>
    </defs>
    <g id="G">
        <path class="cls-1" d="M375.93,40.74,337.37,102a170.66,170.66,0,0,0-181.76,288.9L117,452.24A242.88,242.88,0,0,1,3.48,246.52c0-134.23,108.82-243,243.06-243A241.92,241.92,0,0,1,375.93,40.74Z" transform="translate(-3.48 -3.47)" />
        <path class="cls-2" d="M486.68,284.2A243,243,0,0,1,379,450.33c-1,.66-2,1.31-3,1.95L337.39,391l1.71-1.09c2.39-1.54,4.73-3.14,7-4.81l.84-.61c.57-.41,1.14-.82,1.7-1.25a168.82,168.82,0,0,0,41.68-44.82c.43-.66.85-1.33,1.27-2,.28-.47.57-.93.84-1.4a2.75,2.75,0,0,0,.17-.29,102.89,102.89,0,0,1-15.39-6.09,91.36,91.36,0,0,1-11.6-6.52,77.33,77.33,0,0,1-15.27-12.87s-1.15-1.29-2.87-3.48a80.77,80.77,0,0,1-8.33-12.3,54.21,54.21,0,0,1-6.24-15.34l0-.14c-21.08,10.64-41.3,13.15-59.91,10.66l-.8-.11a108.88,108.88,0,0,1-19.61-4.69q-2.52-.84-5-1.8A134.82,134.82,0,0,1,231,274.25c-1.95-1.08-3.86-2.19-5.74-3.35A185.43,185.43,0,0,1,187.67,240c-13.16-14-19.29-26.73-19.29-26.73l3.55-3.8,28.22-30.15,2.45-2.62,8.2-8.76a273.83,273.83,0,0,0,22.73,29.13c8,8.81,17.24,17.94,28.73,25.1q3,1.89,6.25,3.58a87,87,0,0,0,30.76,9.34c14.56,1.63,31.59.07,51.77-6.32,0,0,11.74,22.47,39.85,38.3a93.09,93.09,0,0,0,20.66,8.14c1,.29,2,.58,3.07.87,2.69.73,5.68,1.44,8.85,2,1.24.24,2.5.45,3.78.64,17.38,2.67,39,4.23,51.65,5C482.17,284,484.85,284.11,486.68,284.2Z" transform="translate(-3.48 -3.47)" />
    </g>
    <g id="icon_mutabiq">
        <path class="cls-3" d="M310.37,366.16l-63.53,63.52" transform="translate(-3.48 -3.47)" />
        <path class="cls-3" d="M221.64,408.8l25.2,20.88" transform="translate(-3.48 -3.47)" />
        <path class="cls-4" d="M289.49,440.12v5.22a20.87,20.87,0,0,1-20.87,20.87H206a20.87,20.87,0,0,1-20.88-20.87V382.71A20.88,20.88,0,0,1,206,361.83h52.19" transform="translate(-3.48 -3.47)" />
    </g>
    <g id="name_english">
        <path class="cls-5" d="M634.44,332.66a15.73,15.73,0,0,0-3.78,1.31,5.38,5.38,0,0,0-1.85,1.64,7.11,7.11,0,0,0-1,2.95,40.14,40.14,0,0,0-.33,6.07v51.53a47.22,47.22,0,0,0,.26,5.84,8.32,8.32,0,0,0,.9,2.92,5,5,0,0,0,1.85,1.79,16.63,16.63,0,0,0,4,1.43v2.92H609.6v-2.92a12.49,12.49,0,0,0,4.7-1.91,5.5,5.5,0,0,0,1.79-3.15,35,35,0,0,0,.47-6.92V373.35q0-9,.27-18.2t.63-12.6h-1l-23.59,59H586l-21.92-60h-1q.3,3.63.57,13.17t.27,19.6v21.8a44.85,44.85,0,0,0,.27,5.84,8.34,8.34,0,0,0,.89,2.92,5.06,5.06,0,0,0,1.85,1.79,16.63,16.63,0,0,0,4,1.43v2.92H549.12v-2.92c2.47-.64,4.12-1.34,5-2.12a5.75,5.75,0,0,0,1.64-3.3,40.1,40.1,0,0,0,.39-6.56V344.63a42.37,42.37,0,0,0-.3-6,7.38,7.38,0,0,0-1-2.91,4.93,4.93,0,0,0-1.81-1.67,19.7,19.7,0,0,0-3.88-1.4v-2.92h21.27l20.91,58,23-58h20.14Z" transform="translate(-3.48 -3.47)" />
        <path class="cls-5" d="M646,354.1h17v30.33a77.55,77.55,0,0,0,.54,10.6,15.74,15.74,0,0,0,1.61,5.48,8.91,8.91,0,0,0,3,3.1,10.06,10.06,0,0,0,5.42,1.25,10.85,10.85,0,0,0,4.35-.89,18.42,18.42,0,0,0,4.64-3.13,15.09,15.09,0,0,0,3.67-4.44,11.38,11.38,0,0,0,1.1-5.12V368.94c0-2.26-.06-4-.18-5.12a11,11,0,0,0-.59-2.78,5.89,5.89,0,0,0-1-1.69,5.11,5.11,0,0,0-1.61-1.19,17.11,17.11,0,0,0-3.36-1.14V354.1h17v40.7c0,3.05.06,5.26.18,6.61a9,9,0,0,0,.77,3.21,4.65,4.65,0,0,0,1.85,1.94,15.66,15.66,0,0,0,4.46,1.4v3.1l-13.64.59h-3.63l.36-9.77-.9-.23a39.4,39.4,0,0,1-9.44,7.86,18.4,18.4,0,0,1-9,2.5,16.89,16.89,0,0,1-8.93-2.14,12.87,12.87,0,0,1-5.24-6.41q-1.74-4.26-1.73-12V368.94a39.84,39.84,0,0,0-.39-6.88,5.7,5.7,0,0,0-1.49-3c-.74-.73-2.33-1.42-4.8-2.06Z" transform="translate(-3.48 -3.47)" />
        <path class="cls-5" d="M711.23,357.08a12.46,12.46,0,0,0,4.82-1.67,8.47,8.47,0,0,0,2.89-3.06,16.48,16.48,0,0,0,1.64-4.71q.6-2.83,1.26-8.25h8.45V354.1h19.25v6H730.29v26.51a69.71,69.71,0,0,0,.48,9.21,12.63,12.63,0,0,0,1.79,5.36,7.93,7.93,0,0,0,3,2.77,9.67,9.67,0,0,0,4.29.83,10.27,10.27,0,0,0,4.46-1,16.88,16.88,0,0,0,4.12-2.83l2.68,3.22a32.29,32.29,0,0,1-8,6,17.52,17.52,0,0,1-7.83,1.85q-7.69,0-11.44-4.56t-3.75-14.26V360.12h-8.82Z" transform="translate(-3.48 -3.47)" />
        <path class="cls-5" d="M790.52,402.54l-.89-.24a36.43,36.43,0,0,1-9.74,7.51,22,22,0,0,1-9.68,2.2,17.24,17.24,0,0,1-8-1.76,12.46,12.46,0,0,1-5.31-4.94,14.44,14.44,0,0,1-1.84-7.36q0-8.7,8.61-13.43T789.51,379v-3.88a32.16,32.16,0,0,0-1.19-9.77,9.6,9.6,0,0,0-3.75-5.24,12.42,12.42,0,0,0-6.85-1.67,11,11,0,0,0-7.48,2.45,14.9,14.9,0,0,0-4.26,7.32h-7.8v-7.74a82.92,82.92,0,0,1,9.53-4.38,56.08,56.08,0,0,1,7.62-2.21,37.89,37.89,0,0,1,7.75-.8,20.43,20.43,0,0,1,9.47,1.88,11.92,11.92,0,0,1,5.36,5.75q1.79,3.87,1.79,11.68v20.73c0,2.93,0,5,.06,6.22a21.62,21.62,0,0,0,.36,3.37,6.77,6.77,0,0,0,.89,2.47,4.87,4.87,0,0,0,1.76,1.58,17.69,17.69,0,0,0,3.78,1.37v2.92H790.23Zm-1-18.65q-12.09.12-18.11,3.22t-6,9.35a9.19,9.19,0,0,0,1.38,5.36,6.93,6.93,0,0,0,3.45,2.71,14.62,14.62,0,0,0,4.94.75,14.11,14.11,0,0,0,7.36-2,14.62,14.62,0,0,0,5.15-5,11.55,11.55,0,0,0,1.85-6Z" transform="translate(-3.48 -3.47)" />
        <path class="cls-5" d="M830.68,363.46l.24.06a52.51,52.51,0,0,1,6.94-6.32,23.3,23.3,0,0,1,5.72-3,19.36,19.36,0,0,1,6.46-1A18.31,18.31,0,0,1,861,356.4a20.38,20.38,0,0,1,7,9.74,44.85,44.85,0,0,1,2.47,15.9q0,9.72-2.94,16.42a21.44,21.44,0,0,1-8.7,10.12A26.07,26.07,0,0,1,845.21,412a41.38,41.38,0,0,1-8.3-.8,36.72,36.72,0,0,1-8.2-2.83L824.54,412l-4.11-.95V346.3q0-5.71-.09-8a19.73,19.73,0,0,0-.47-3.85A6.84,6.84,0,0,0,818.8,332a5,5,0,0,0-1.85-1.43,20.27,20.27,0,0,0-4.2-1.07v-3.1l14.41-.6h3.52Zm0,26.15a50,50,0,0,0,.42,7.3,13.33,13.33,0,0,0,1.4,4.5,11.46,11.46,0,0,0,7.06,5.33,21.76,21.76,0,0,0,5.18.56,12,12,0,0,0,10.84-5.83q3.69-5.85,3.69-17.52t-3.36-17.72a11,11,0,0,0-10.16-5.93,14.49,14.49,0,0,0-5.78,1,17.07,17.07,0,0,0-4.73,3.25,16.51,16.51,0,0,0-3.46,4.35,10.61,10.61,0,0,0-1.1,4.89Z" transform="translate(-3.48 -3.47)" />
        <path class="cls-5" d="M882.45,408.14a19.42,19.42,0,0,0,3.3-1.25,5,5,0,0,0,1.67-1.49,7.63,7.63,0,0,0,1.08-2.92,35,35,0,0,0,.38-6.14v-26q0-3.81-.11-6.14a9.21,9.21,0,0,0-.84-3.72,4.52,4.52,0,0,0-2.18-2.09,17.59,17.59,0,0,0-4.13-1.16V354.1l13.88-.53h3.63v42.59a35.27,35.27,0,0,0,.48,7.12,5.19,5.19,0,0,0,1.81,3,12.41,12.41,0,0,0,4.38,1.82v2.92H882.45Zm17-77.39v11.56h-11V330.75Z" transform="translate(-3.48 -3.47)" />
        <path class="cls-5" d="M973.48,436.68h-24.3v-2.93a15.8,15.8,0,0,0,4.14-1.3,5.39,5.39,0,0,0,2-1.82,7.58,7.58,0,0,0,1-3,45,45,0,0,0,.27-5.81V401.29a46.75,46.75,0,0,1-6,5.81,25,25,0,0,1-6.16,3.54,19.19,19.19,0,0,1-7.21,1.37q-9.82,0-15.1-7.33t-5.27-21.32q0-9.9,3.42-16.72a23,23,0,0,1,9.56-10.18,29,29,0,0,1,14.18-3.37,28.75,28.75,0,0,1,14.6,3.64l4.17-3.64,4,1v67.79a45,45,0,0,0,.27,5.57,8.9,8.9,0,0,0,1,3.25,4.63,4.63,0,0,0,2,1.85,20.61,20.61,0,0,0,3.48,1.24Zm-17-61.13a40.13,40.13,0,0,0-.71-8.58,12.64,12.64,0,0,0-2.44-5.15,10.06,10.06,0,0,0-4.06-3,14.66,14.66,0,0,0-5.48-.92,13.23,13.23,0,0,0-11.76,6.19Q928,370.25,928,381.51q0,11.43,3.3,17.39a10.67,10.67,0,0,0,9.92,6,17.38,17.38,0,0,0,4.26-.45,13,13,0,0,0,3.46-1.45,18.86,18.86,0,0,0,3.45-2.74,14.54,14.54,0,0,0,2.53-3.13,12.33,12.33,0,0,0,1.2-3.25,22.86,22.86,0,0,0,.41-4.76Z" transform="translate(-3.48 -3.47)" />
    </g>
    <g id="name_arabic">
        <path class="cls-6" d="M604.71,263.38a32.39,32.39,0,0,1-9.18-1.25,19.87,19.87,0,0,1-7.36-3.94,18,18,0,0,1-4.88-6.91,26.47,26.47,0,0,1-1.76-10.18,29.78,29.78,0,0,1,1.64-9.8,26.26,26.26,0,0,1,4.74-8.43,23.27,23.27,0,0,1,7.59-5.93,22.54,22.54,0,0,1,10.16-2.23,23.65,23.65,0,0,1,10.78,2.23,18.14,18.14,0,0,1,7.12,6.4,29,29,0,0,1,3.93,10,63.94,63.94,0,0,1,1.22,13.08v6.79h8.64a5.16,5.16,0,0,1,3.7,1.16,5.06,5.06,0,0,1,1.19,3.73c0,2-.39,3.4-1.16,4.14a5.33,5.33,0,0,1-3.73,1.1h-8.87a33.28,33.28,0,0,1-4,12.84,27.3,27.3,0,0,1-8.28,8.93A36.47,36.47,0,0,1,604,290.4a67,67,0,0,1-15.67,1.69,69.37,69.37,0,0,1-19.15-2.26,34.58,34.58,0,0,1-12.57-6.25,23,23,0,0,1-6.91-9.45,32.37,32.37,0,0,1-2.12-11.82V244.08h9.89v16q0,10.78,7.66,16.39t23.2,5.6a67.39,67.39,0,0,0,11.35-.93,32.55,32.55,0,0,0,9.65-3.1,18.33,18.33,0,0,0,6.73-5.77,15.14,15.14,0,0,0,2.54-8.91Zm-13.41-23.3c0,4.1,1.21,7.31,3.64,9.66s5.91,3.51,10.48,3.51h13.05v-9.11a42.43,42.43,0,0,0-.72-8.14,18.4,18.4,0,0,0-2.32-6.25,11,11,0,0,0-4.2-4,13,13,0,0,0-6.29-1.4,12.37,12.37,0,0,0-6.07,1.4,12.85,12.85,0,0,0-4.23,3.63,16.15,16.15,0,0,0-2.51,5A20,20,0,0,0,591.3,240.08Zm1.07-44.2a6.07,6.07,0,0,1,.51-2.47,6.6,6.6,0,0,1,1.4-2.06,6.85,6.85,0,0,1,2.05-1.4,6.26,6.26,0,0,1,2.54-.5,6.06,6.06,0,0,1,2.47.5,6.9,6.9,0,0,1,2.06,1.4,6.57,6.57,0,0,1,1.39,2.06,6.07,6.07,0,0,1,.51,2.47,6.22,6.22,0,0,1-.51,2.53,6.57,6.57,0,0,1-1.39,2.06,6.9,6.9,0,0,1-2.06,1.4,6.23,6.23,0,0,1-2.47.5,6.43,6.43,0,0,1-2.54-.5,6.85,6.85,0,0,1-2.05-1.4,6.6,6.6,0,0,1-1.4-2.06A6.22,6.22,0,0,1,592.37,195.88Zm15.85,0a6.07,6.07,0,0,1,.51-2.47,6.43,6.43,0,0,1,1.4-2.06,6.73,6.73,0,0,1,2-1.4,6.26,6.26,0,0,1,2.54-.5,6.1,6.1,0,0,1,2.47.5,6.73,6.73,0,0,1,2,1.4,6.43,6.43,0,0,1,1.4,2.06,6.07,6.07,0,0,1,.51,2.47,6.22,6.22,0,0,1-.51,2.53,6.43,6.43,0,0,1-1.4,2.06,6.73,6.73,0,0,1-2,1.4,6.27,6.27,0,0,1-2.47.5,6.43,6.43,0,0,1-2.54-.5,6.73,6.73,0,0,1-2-1.4,6.43,6.43,0,0,1-1.4-2.06A6.22,6.22,0,0,1,608.22,195.88Z" transform="translate(-3.48 -3.47)" />
        <path class="cls-6" d="M637.35,263.38a5.15,5.15,0,0,1-3.69-1.16,5,5,0,0,1-1.19-3.73c0-2,.39-3.4,1.16-4.14a5.3,5.3,0,0,1,3.72-1.1H656V216.43h10.37v46.95Zm15.49,18.17a6,6,0,0,1,.51-2.47,6.6,6.6,0,0,1,1.4-2.06,6.85,6.85,0,0,1,2-1.4,6.26,6.26,0,0,1,2.54-.51,6.07,6.07,0,0,1,2.47.51,6.73,6.73,0,0,1,2.05,1.4,6.43,6.43,0,0,1,1.4,2.06,6,6,0,0,1,.51,2.47,6.22,6.22,0,0,1-.51,2.53,6.54,6.54,0,0,1-1.4,2.06,6.73,6.73,0,0,1-2.05,1.4,6.23,6.23,0,0,1-2.47.5,6.43,6.43,0,0,1-2.54-.5,6.85,6.85,0,0,1-2-1.4,6.72,6.72,0,0,1-1.4-2.06A6.22,6.22,0,0,1,652.84,281.55Z" transform="translate(-3.48 -3.47)" />
        <path class="cls-6" d="M707.18,258.14q0,3-1.14,4.14a5.27,5.27,0,0,1-3.75,1.1H700.5a29.07,29.07,0,0,1-7.09-.81,13.23,13.23,0,0,1-5.51-2.77,12.88,12.88,0,0,1-3.57-5.21,22.17,22.17,0,0,1-1.28-8.07V176.28h10.36v67.56a24.39,24.39,0,0,0,.33,4.35,6.27,6.27,0,0,0,1.28,2.92,5.44,5.44,0,0,0,2.65,1.64,16.31,16.31,0,0,0,4.44.5h.24a5,5,0,0,1,3.66,1.16A5.1,5.1,0,0,1,707.18,258.14Z" transform="translate(-3.48 -3.47)" />
        <path class="cls-6" d="M702.29,263.38a5.12,5.12,0,0,1-3.69-1.16,5,5,0,0,1-1.19-3.73c0-2,.38-3.4,1.16-4.14a5.28,5.28,0,0,1,3.72-1.1h18.05a5.12,5.12,0,0,1,3.69,1.16,5,5,0,0,1,1.2,3.73c0,2-.39,3.4-1.16,4.14a5.33,5.33,0,0,1-3.73,1.1Z" transform="translate(-3.48 -3.47)" />
        <path class="cls-6" d="M720.34,263.38a5.12,5.12,0,0,1-3.69-1.16,5.06,5.06,0,0,1-1.19-3.73c0-2,.38-3.4,1.16-4.14a5.28,5.28,0,0,1,3.72-1.1h18a5.16,5.16,0,0,1,3.7,1.16,5.06,5.06,0,0,1,1.19,3.73c0,2-.39,3.4-1.16,4.14a5.33,5.33,0,0,1-3.73,1.1Z" transform="translate(-3.48 -3.47)" />
        <path class="cls-6" d="M738.39,263.38a5.15,5.15,0,0,1-3.69-1.16,5,5,0,0,1-1.19-3.73c0-2,.39-3.4,1.16-4.14a5.3,5.3,0,0,1,3.72-1.1h18.05a5.16,5.16,0,0,1,3.7,1.16,5.06,5.06,0,0,1,1.19,3.73c0,2-.39,3.4-1.16,4.14a5.33,5.33,0,0,1-3.73,1.1Z" transform="translate(-3.48 -3.47)" />
        <path class="cls-6" d="M756.44,263.38a5.15,5.15,0,0,1-3.69-1.16,5.06,5.06,0,0,1-1.19-3.73c0-2,.39-3.4,1.16-4.14a5.3,5.3,0,0,1,3.72-1.1H774.5a5.13,5.13,0,0,1,3.69,1.16,5.06,5.06,0,0,1,1.19,3.73c0,2-.39,3.4-1.16,4.14a5.32,5.32,0,0,1-3.72,1.1Z" transform="translate(-3.48 -3.47)" />
        <path class="cls-6" d="M774.5,263.38a5.16,5.16,0,0,1-3.7-1.16,5.06,5.06,0,0,1-1.19-3.73c0-2,.39-3.4,1.16-4.14a5.33,5.33,0,0,1,3.73-1.1h18a5.15,5.15,0,0,1,3.69,1.16,5,5,0,0,1,1.19,3.73c0,2-.38,3.4-1.16,4.14a5.3,5.3,0,0,1-3.72,1.1Z" transform="translate(-3.48 -3.47)" />
        <path class="cls-6" d="M792.55,263.38a5.16,5.16,0,0,1-3.7-1.16,5.06,5.06,0,0,1-1.19-3.73c0-2,.39-3.4,1.16-4.14a5.33,5.33,0,0,1,3.73-1.1H810.6a5.12,5.12,0,0,1,3.69,1.16,5,5,0,0,1,1.19,3.73c0,2-.38,3.4-1.16,4.14a5.28,5.28,0,0,1-3.72,1.1Z" transform="translate(-3.48 -3.47)" />
        <path class="cls-6" d="M904.07,253.25a5.16,5.16,0,0,1,3.7,1.16,5.06,5.06,0,0,1,1.19,3.73c0,2-.38,3.4-1.13,4.14a5.31,5.31,0,0,1-3.76,1.1H810.6a5.12,5.12,0,0,1-3.69-1.16,5,5,0,0,1-1.2-3.73q0-3,1.17-4.14a5.28,5.28,0,0,1,3.72-1.1h15.31v-77h10.36V235q6.68-10.43,15-15.37a35.13,35.13,0,0,1,18.32-4.94,29,29,0,0,1,10.93,1.93,22,22,0,0,1,8.1,5.54,24.43,24.43,0,0,1,5.07,8.82,36.76,36.76,0,0,1,1.76,11.77v10.48Zm-19,0V243.12a32.15,32.15,0,0,0-.72-6.79,14.75,14.75,0,0,0-2.65-5.9,14.12,14.12,0,0,0-5.24-4.14,19.79,19.79,0,0,0-8.49-1.58,23.85,23.85,0,0,0-7.42,1.16,28.7,28.7,0,0,0-6.7,3.22,36.67,36.67,0,0,0-5.9,4.8,44.86,44.86,0,0,0-5,5.93,50.46,50.46,0,0,0-3.93,6.61,47.46,47.46,0,0,0-2.78,6.82Z" transform="translate(-3.48 -3.47)" />
        <path class="cls-6" d="M924,256.41a17.5,17.5,0,0,1-3.27,3.84,12.25,12.25,0,0,1-3.46,2.09,14.21,14.21,0,0,1-3.76.86q-2,.18-4.17.18h-5.24a5.12,5.12,0,0,1-3.69-1.16,5.06,5.06,0,0,1-1.19-3.73c0-2,.38-3.4,1.16-4.14a5.3,5.3,0,0,1,3.72-1.1h5a14,14,0,0,0,3-.36,8.43,8.43,0,0,0,3.18-1.52,12.7,12.7,0,0,0,3-3.33,21.6,21.6,0,0,0,2.5-5.87A45.91,45.91,0,0,1,926,230a30.3,30.3,0,0,1,6.59-7.48,20.44,20.44,0,0,1,7.18-3.75,26.05,26.05,0,0,1,7-1,22.93,22.93,0,0,1,8.76,1.64,19.65,19.65,0,0,1,6.88,4.68,21.67,21.67,0,0,1,4.5,7.27,26.32,26.32,0,0,1,1.6,9.41,35.78,35.78,0,0,1-1.31,10,19.89,19.89,0,0,1-4.05,7.65,18.22,18.22,0,0,1-6.88,4.89,25.22,25.22,0,0,1-9.74,1.73,33.08,33.08,0,0,1-5-.39,29.57,29.57,0,0,1-5.34-1.37,41.11,41.11,0,0,1-5.81-2.65A57.63,57.63,0,0,1,924,256.41Zm34.14-14.6a19.94,19.94,0,0,0-.78-5.75,12.55,12.55,0,0,0-2.29-4.44,10.13,10.13,0,0,0-3.76-2.85,12.08,12.08,0,0,0-5.09-1,13.27,13.27,0,0,0-5.45,1.16,14.23,14.23,0,0,0-4.79,3.64,25.61,25.61,0,0,0-4,6.28,49.39,49.39,0,0,0-3.09,9.18,33,33,0,0,0,8.57,4.91,24,24,0,0,0,8.58,1.7q5.67,0,8.88-3T958.11,241.81Z" transform="translate(-3.48 -3.47)" />
    </g>
</svg>